<svg xmlns="http://www.w3.org/2000/svg" width="26" height="26" viewBox="0 0 26 26"><g fill="#fff" transform="translate(5 -1031.362)"><circle cx="657.054" cy="437.094" r="15.268" fill="#ef4c45" fill-rule="evenodd" transform="translate(-551.456 672.193) scale(.85146)"/><path fill="#df2209" style="line-height:normal;text-indent:0;text-align:start;text-decoration-line:none;text-decoration-style:solid;text-decoration-color:#000;text-transform:none;block-progression:tb;isolation:auto;mix-blend-mode:normal" d="M 11.423828 25.892578 A 12.999997 12.999997 0 0 0 11.703125 25.935547 A 12.999997 12.999997 0 0 0 13 26 A 12.999997 12.999997 0 0 0 13.919922 25.966797 A 12.999997 12.999997 0 0 0 15.208984 25.810547 A 12.999997 12.999997 0 0 0 16.476562 25.525391 A 12.999997 12.999997 0 0 0 17.710938 25.117188 A 12.999997 12.999997 0 0 0 18.896484 24.585938 A 12.999997 12.999997 0 0 0 20.023438 23.939453 A 12.999997 12.999997 0 0 0 21.080078 23.183594 A 12.999997 12.999997 0 0 0 22.056641 22.326172 A 12.999997 12.999997 0 0 0 22.943359 21.375 A 12.999997 12.999997 0 0 0 23.728516 20.339844 A 12.999997 12.999997 0 0 0 24.408203 19.232422 A 12.999997 12.999997 0 0 0 24.974609 18.0625 A 12.999997 12.999997 0 0 0 25.419922 16.841797 A 12.999997 12.999997 0 0 0 25.740234 15.582031 A 12.999997 12.999997 0 0 0 25.935547 14.296875 A 12.999997 12.999997 0 0 0 26 13 A 12.999997 12.999997 0 0 0 25.966797 12.080078 A 12.999997 12.999997 0 0 0 25.876953 11.345703 L 21 6.46875 L 5 6.46875 L 5 6.96875 L 5 19.46875 L 11.423828 25.892578 z " color="#000" font-family="sans-serif" font-weight="400" transform="translate(-5 1031.362)"/><path style="line-height:normal;text-indent:0;text-align:start;text-decoration-line:none;text-decoration-style:solid;text-decoration-color:#000;text-transform:none;block-progression:tb;isolation:auto;mix-blend-mode:normal" d="M 0,2 0,2.5 0,15 16,15 16,2 0,2 Z m 1,1 14,0 0,7 -14,0 0,-7 z m 5.0019531,1.1542969 0,4.7402343 L 6.75,8.4589844 10.070312,6.5234375 6.0019531,4.1542969 Z m 0.9960938,1.7402343 1.0800781,0.6308594 -1.0800781,0.6289063 0,-1.2597657 z M 1,11 l 14,0 0,1.003906 -11,0 0,-0.5 -1,0 0,0.5 -2,0 L 1,11 Z m 0,2.003906 2,0 0,0.5 1,0 0,-0.5 11,0 L 15,14 1,14 1,13.003906 Z" color="#000" font-family="sans-serif" font-weight="400" overflow="visible" transform="translate(0 1035.831)"/></g></svg>