<?xml version="1.0" standalone="no"?>
<!DOCTYPE svg PUBLIC "-//W3C//DTD SVG 20010904//EN"
 "http://www.w3.org/TR/2001/REC-SVG-20010904/DTD/svg10.dtd">
<svg version="1.0" xmlns="http://www.w3.org/2000/svg"
 width="650.000000pt" height="366.000000pt" viewBox="0 0 650.000000 366.000000"
 preserveAspectRatio="xMidYMid meet">

<g transform="translate(0.000000,366.000000) scale(0.100000,-0.100000)"
fill="#000000" stroke="none">
<path d="M2611 3225 l-186 -186 90 47 c50 25 115 61 145 79 57 34 73 43 225
128 50 27 99 55 109 63 18 12 17 13 -10 19 -16 4 -52 13 -81 21 -98 27 -89 32
-292 -171z"/>
<path d="M3986 3061 c66 -38 139 -80 162 -95 23 -14 44 -26 46 -26 3 0 71 -38
151 -85 81 -46 155 -87 166 -90 18 -6 18 -4 4 42 -8 26 -19 64 -25 83 -19 68
-29 74 -265 151 -86 29 -323 89 -348 89 -7 0 42 -31 109 -69z"/>
<path d="M1673 2288 c-34 -35 -65 -75 -68 -90 -6 -25 10 -92 101 -423 l33
-120 0 348 c1 191 0 347 -2 347 -1 0 -30 -28 -64 -62z"/>
<path d="M3598 2134 c-32 -40 -105 -136 -164 -214 -58 -78 -109 -138 -114
-134 -4 5 -38 52 -75 104 -76 106 -105 140 -117 140 -18 0 -4 -26 82 -144 50
-68 90 -129 90 -135 0 -6 -45 -73 -101 -148 -80 -109 -97 -139 -84 -141 10 -2
20 0 24 5 65 96 185 252 191 248 5 -3 50 -62 100 -130 65 -89 97 -125 112
-125 20 0 20 1 -4 33 -93 123 -178 246 -178 259 0 8 13 33 28 54 77 107 273
396 270 399 -2 1 -29 -30 -60 -71z"/>
<path d="M2217 2023 c-4 -3 -7 -132 -7 -285 0 -261 1 -279 18 -276 15 3 17 26
22 258 l5 255 105 -153 c209 -305 386 -552 396 -552 7 0 -464 708 -494 743
-16 18 -34 22 -45 10z"/>
<path d="M2697 2024 c-4 -4 -7 -133 -7 -286 l0 -278 196 0 c152 0 195 3 192
13 -4 9 -52 13 -179 17 l-174 5 0 120 0 120 163 3 c134 2 162 5 162 17 0 12
-28 15 -162 17 l-163 3 0 110 0 110 173 3 c132 2 173 5 169 15 -3 9 -52 13
-183 15 -99 1 -183 -1 -187 -4z"/>
<path d="M3587 2023 c-18 -17 1 -22 91 -25 l97 -3 3 -267 c2 -228 5 -268 17
-268 12 0 15 40 17 268 l3 267 98 3 c77 2 97 6 97 17 0 13 -32 15 -208 15
-115 0 -212 -3 -215 -7z"/>
<path d="M4757 1849 c-9 -34 -9 -677 1 -682 4 -2 37 29 75 69 55 60 67 80 67
106 -1 18 -31 145 -69 282 -49 182 -69 243 -74 225z"/>
<path d="M4130 1550 c0 -66 -12 -80 -49 -60 -12 6 -21 7 -21 2 0 -15 24 -32
45 -32 12 0 26 5 33 12 15 15 16 138 2 138 -6 0 -10 -27 -10 -60z"/>
<path d="M4202 1598 c-25 -25 -13 -48 33 -68 25 -11 45 -24 45 -30 0 -18 -31
-24 -61 -13 -31 12 -38 3 -15 -16 20 -17 77 -10 90 12 15 24 -2 50 -42 62 -22
6 -32 15 -32 28 0 17 5 19 42 13 36 -6 40 -5 28 9 -15 18 -71 20 -88 3z"/>
<path d="M4010 1470 c0 -5 5 -10 10 -10 6 0 10 5 10 10 0 6 -4 10 -10 10 -5 0
-10 -4 -10 -10z"/>
<path d="M1981 733 c0 -5 12 -44 27 -87 18 -53 35 -86 52 -98 14 -10 120 -43
235 -73 116 -30 216 -57 223 -60 29 -10 8 6 -55 43 -113 65 -437 263 -447 273
-12 11 -36 12 -35 2z"/>
<path d="M3920 387 c-63 -35 -153 -86 -200 -114 -47 -28 -110 -65 -140 -81
-30 -17 -56 -34 -57 -39 -5 -13 140 -47 168 -40 20 5 364 338 349 337 -3 0
-57 -29 -120 -63z"/>
</g>
</svg>
