<svg id="Layer_1" data-name="Layer 1" xmlns="http://www.w3.org/2000/svg" viewBox="0 0 323.06 323.05"><defs><style>.cls-1{fill:none;}.cls-2{fill:#6b7280;}.cls-3{fill:#344155;}</style></defs><path class="cls-1" d="M351,459.51h.15a161.85,161.85,0,0,1-142.76,0h0V271.14Z" transform="translate(-118.24 -153.05)"/><path class="cls-1" d="M208.43,169.65h-.06a161.85,161.85,0,0,1,142.8,0h-.05V358.18Z" transform="translate(-118.24 -153.05)"/><path class="cls-2" d="M208.43,271.14V459.51h0a161.44,161.44,0,0,1-48.78-252.88Z" transform="translate(-118.24 -153.05)"/><path class="cls-3" d="M441.3,314.58a161.38,161.38,0,0,1-90.15,144.93H351L208.43,271.14l-48.82-64.51a162.05,162.05,0,0,1,48.76-37h.06L351.12,358.18V169.65h.05A161.38,161.38,0,0,1,441.3,314.58Z" transform="translate(-118.24 -153.05)"/></svg>